<svg width="32" height="30" viewBox="0 0 32 30" fill="none" xmlns="http://www.w3.org/2000/svg">
<path d="M16.0085 18.7001C20.9418 18.7001 24.9752 14.6667 24.9752 9.70008C24.9752 4.73341 20.9418 0.700075 16.0085 0.700075C11.0752 0.700075 7.04184 4.73341 7.04184 9.70008C7.04184 14.6667 11.0752 18.7001 16.0085 18.7001ZM16.0085 3.33338C19.4752 3.33338 22.3085 6.16671 22.3085 9.66671C22.3085 13.1667 19.4752 16 16.0085 16C12.5418 16 9.70851 13.1667 9.70851 9.66671C9.70851 6.16671 12.5418 3.33338 16.0085 3.33338ZM20.1752 19.5667C19.7418 19.4334 19.2418 19.5334 18.9085 19.8334L16.0085 22.3L13.1085 19.8334C12.7418 19.5334 12.2752 19.4334 11.8418 19.5667C9.97517 20.1667 0.675171 23.3667 0.675171 28C0.675171 28.7334 1.27517 29.3334 2.0085 29.3334H30.0085C30.7418 29.3334 31.3418 28.7334 31.3418 28C31.3418 23.3667 22.0418 20.1667 20.1752 19.5667ZM4.04184 26.6667C5.50851 25.1 9.04184 23.3667 11.9752 22.3667L15.1418 25.0667C15.6418 25.5 16.3752 25.5 16.8752 25.0667L20.0418 22.3667C22.9752 23.4001 26.5085 25.1334 27.9752 26.6667H4.04184Z" fill="#C4C4C4"/>
</svg>
