<svg width="40" height="40" viewBox="0 0 40 40" fill="none" xmlns="http://www.w3.org/2000/svg">
<path d="M35.2752 13.4334L31.7085 24.7001C31.4418 25.5001 30.7418 26.0334 29.9085 26.0334H16.1418C15.3418 26.0334 14.5752 25.5334 14.3085 24.8L9.07518 10.7001H6.0085C5.27517 10.7001 4.67517 10.1001 4.67517 9.36675C4.67517 8.63342 5.27517 8.03342 6.0085 8.03342H9.97517C10.5418 8.03342 11.0418 8.40007 11.2418 8.9334L16.6752 23.3334H29.3418L32.1752 14.3334H16.4752C15.7418 14.3334 15.1418 13.7334 15.1418 13.0001C15.1418 12.2667 15.7418 11.6667 16.4752 11.6667H34.0085C34.4418 11.6667 34.8418 11.9 35.0752 12.2334C35.3418 12.5667 35.4085 13.0334 35.2752 13.4334ZM16.8085 27.7667C16.2418 27.7667 15.6752 28 15.2752 28.4C14.8752 28.8 14.6418 29.3667 14.6418 29.9334C14.6418 30.5001 14.8752 31.0667 15.2752 31.4667C15.6752 31.8667 16.2418 32.1001 16.8085 32.1001C17.3752 32.1001 17.9418 31.8667 18.3418 31.4667C18.7418 31.0667 18.9752 30.5001 18.9752 29.9334C18.9752 29.3667 18.7418 28.8 18.3418 28.4C17.9418 28 17.3752 27.7667 16.8085 27.7667ZM28.7752 27.7667C28.2085 27.7667 27.6418 28 27.2418 28.4C26.8418 28.8 26.6085 29.3667 26.6085 29.9334C26.6085 30.5001 26.8418 31.0667 27.2418 31.4667C27.6418 31.8667 28.2085 32.1001 28.7752 32.1001C29.3418 32.1001 29.9085 31.8667 30.3085 31.4667C30.7085 31.0667 30.9418 30.5001 30.9418 29.9334C30.9418 29.3667 30.7085 28.8 30.3085 28.4C29.9085 28 29.3418 27.7667 28.7752 27.7667Z" fill="#C4C4C4"/>
</svg>
