<svg width="30" height="30" viewBox="0 0 30 30" fill="none" xmlns="http://www.w3.org/2000/svg">
<path d="M25.5064 9.25H15.7563V6.95001C15.7563 6.52501 15.2063 6 14.8063 6H4.25635C3.83135 6 3.50635 6.52501 3.50635 6.95001V13.35C3.50635 13.775 3.85635 14.25 4.25635 14.25H5.78134L7.78134 16.425C7.93134 16.6 8.13135 16.65 8.35635 16.65C8.45635 16.65 8.48136 16.625 8.58136 16.575C8.88136 16.475 9.03134 16.175 9.03134 15.85V14.25H10.5313V18.9C10.5313 19.45 11.1063 20 11.6563 20H18.5313V23.05C18.5313 23.45 18.7313 23.825 19.1313 23.975C19.2563 24.025 19.3564 24.05 19.4814 24.05C19.7564 24.05 20.0064 24 20.2064 23.8L23.9313 20H25.5313C26.0813 20 26.5313 19.45 26.5313 18.9V10.475C26.5063 9.92501 26.0564 9.25 25.5064 9.25ZM8.35635 12.75C7.93135 12.75 7.50635 12.925 7.50635 13.35V13.85L6.65634 12.925C6.50634 12.775 6.35635 12.75 6.13135 12.75H5.00635V7.5H14.0063V9.25H11.6313C11.0813 9.25 10.5063 9.92501 10.5063 10.475V12.75H8.35635ZM24.5064 18H23.4814C23.2064 18 22.9813 18.05 22.7813 18.25L20.5063 20.55V18.875C20.5063 18.325 19.9813 17.975 19.4313 17.975H12.5063V11.225H24.5064V18ZM13.9564 13.5C13.9564 13.075 14.3064 12.75 14.7064 12.75H19.4814C19.9064 12.75 20.2314 13.075 20.2314 13.5C20.2314 13.925 19.8814 14.25 19.4814 14.25H14.7064C14.2814 14.25 13.9564 13.925 13.9564 13.5ZM21.2314 14.025C21.0814 13.875 21.0063 13.7 21.0063 13.5C21.0063 13.3 21.0814 13.1 21.2314 12.975C21.5064 12.7 22.0313 12.7 22.3063 12.975C22.4563 13.125 22.5313 13.3 22.5313 13.5C22.5313 13.7 22.4563 13.9 22.3063 14.025C22.1563 14.175 21.9813 14.25 21.7813 14.25C21.5563 14.225 21.3564 14.15 21.2314 14.025Z" fill="#7A7A7A"/>
</svg>
