<svg width="30" height="30" viewBox="0 0 30 30" fill="none" xmlns="http://www.w3.org/2000/svg">
<path d="M18.5062 18.675V23.25C18.5062 23.8 18.1062 24.25 17.5562 24.25H4.50623C3.95623 24.25 3.50623 23.8 3.50623 23.25V6.75C3.50623 6.2 3.95623 5.75 4.50623 5.75H17.5562C18.1062 5.75 18.5062 6.2 18.5062 6.75V11.325C18.5062 11.875 18.0562 12.325 17.5062 12.325C16.9562 12.325 16.5062 11.875 16.5062 11.325V7.75H5.50623V22.25H16.5062V18.675C16.5062 18.125 16.9562 17.675 17.5062 17.675C18.0562 17.675 18.5062 18.125 18.5062 18.675ZM26.2062 14.25L22.2812 10.3C21.8812 9.89999 21.2562 9.89999 20.8562 10.3C20.4562 10.7 20.4562 11.325 20.8562 11.725L23.0812 13.975L10.9562 14C10.4062 14 9.95624 14.45 9.95624 15C9.95624 15.55 10.4062 16 10.9562 16L23.0812 15.975L20.8562 18.225C20.4562 18.625 20.4812 19.25 20.8562 19.65C21.0562 19.85 21.3062 19.95 21.5562 19.95C21.8062 19.95 22.0812 19.85 22.2562 19.65L26.1812 15.7C26.6062 15.275 26.6062 14.65 26.2062 14.25Z" fill="#7A7A7A"/>
</svg>
