<svg width="32" height="32" viewBox="0 0 32 32" fill="none" xmlns="http://www.w3.org/2000/svg">
<path d="M30.0083 17C29.675 17 29.3417 16.8667 29.075 16.6334L16.0083 3.86668L2.94165 16.6334C2.40831 17.1334 1.57497 17.1334 1.04164 16.6C0.541641 16.0667 0.541654 15.2333 1.07499 14.7L15.075 1.03335C15.6083 0.533348 16.4083 0.533348 16.9416 1.03335L30.9416 14.7C31.475 15.2 31.475 16.0667 30.975 16.6C30.7083 16.8667 30.3417 17 30.0083 17ZM27.075 30V16.9667C27.075 16.2334 26.475 15.6334 25.7417 15.6334C25.0083 15.6334 24.4083 16.2334 24.4083 16.9667V28.6667H20.2417V21.5333C20.2417 20.5667 19.4417 19.7667 18.475 19.7667H13.5083C12.5417 19.7667 11.7417 20.5667 11.7417 21.5333V28.6667H7.57499V16.9667C7.57499 16.2334 6.97499 15.6334 6.24165 15.6334C5.50832 15.6334 4.90832 16.2334 4.90832 16.9667V30C4.90832 30.7334 5.50832 31.3334 6.24165 31.3334H13.075C13.8083 31.3334 14.4083 30.7334 14.4083 30V22.4334H17.575V30C17.575 30.7334 18.175 31.3334 18.9083 31.3334H25.7417C26.5083 31.3334 27.075 30.7334 27.075 30Z" fill="#C4C4C4"/>
</svg>
