<svg width="30" height="30" viewBox="0 0 30 30" fill="none" xmlns="http://www.w3.org/2000/svg">
<path d="M23.9062 4.25003C23.6562 4.10003 23.3563 4.07504 23.1063 4.20004L17.8312 6.67502L12.5313 4.20004C12.5063 4.20004 12.5062 4.20002 12.4812 4.17502C12.4562 4.15002 12.4062 4.15005 12.3812 4.15005C12.3562 4.15005 12.3063 4.12503 12.2813 4.12503C12.2563 4.12503 12.2063 4.12503 12.1813 4.12503C12.1563 4.12503 12.1062 4.12503 12.0812 4.12503C12.0562 4.12503 12.0062 4.12505 11.9812 4.15005C11.9562 4.15005 11.9062 4.17502 11.8812 4.17502C11.8562 4.17502 11.8562 4.17504 11.8312 4.20004L6.10625 6.85001C5.80625 7.00001 5.53125 7.30005 5.53125 7.65005V25C5.53125 25.3 5.75625 25.575 6.00625 25.75C6.15625 25.85 6.33125 25.875 6.50625 25.875C6.63125 25.875 6.78125 25.85 6.88125 25.8L12.1813 23.325L17.4812 25.8C17.5312 25.825 17.5813 25.85 17.6313 25.85C17.6563 25.85 17.6563 25.85 17.6813 25.85C17.7313 25.85 17.7812 25.875 17.8562 25.875C17.9312 25.875 17.9563 25.875 18.0313 25.85C18.0563 25.85 18.0562 25.85 18.0812 25.85C18.1312 25.825 18.1812 25.825 18.2312 25.8L23.8312 23.1501C24.1312 23.0001 24.2812 22.7 24.2812 22.35V5.00003C24.2562 4.70003 24.1562 4.42503 23.9062 4.25003ZM17.0063 23.625L13.0062 21.8V6.37503L17.0063 8.20004V23.625ZM7.25625 8.20004L11.2562 6.37503V21.8L7.25625 23.625V8.20004ZM22.5063 21.8L18.7563 23.625V8.20004L22.5063 6.37503V21.8Z" fill="#7A7A7A"/>
</svg>
