<svg width="30" height="30" viewBox="0 0 30 30" fill="none" xmlns="http://www.w3.org/2000/svg">
<path d="M15.0063 19.825C12.3563 19.825 10.1813 17.675 10.1813 15C10.1813 12.35 12.3313 10.175 15.0063 10.175C17.6563 10.175 19.8314 12.325 19.8314 15C19.8314 17.65 17.6563 19.825 15.0063 19.825ZM15.0063 11.95C13.3313 11.95 11.9564 13.325 11.9564 15C11.9564 16.675 13.3313 18.05 15.0063 18.05C16.6813 18.05 18.0563 16.675 18.0563 15C18.0563 13.325 16.6813 11.95 15.0063 11.95ZM15.0063 26.5H14.8813C14.0063 26.5 13.2564 26.4 13.2064 26.4C12.8064 26.35 12.5063 26.05 12.4313 25.65L12.1813 23.8499C11.6313 23.6749 11.1064 23.45 10.6064 23.175L9.18134 24.25C8.85634 24.5 8.43135 24.475 8.10635 24.25C8.08135 24.225 7.48135 23.75 6.85635 23.15L6.75635 23.05C6.13135 22.425 5.68134 21.825 5.65634 21.8C5.40634 21.475 5.40634 21.0499 5.65634 20.7249L6.75635 19.275C6.48135 18.775 6.28135 18.225 6.10635 17.675L4.35635 17.425C3.95635 17.375 3.65635 17.05 3.60635 16.65C3.60635 16.625 3.50635 15.85 3.50635 14.975V14.85C3.50635 13.975 3.60635 13.225 3.60635 13.175C3.65635 12.775 3.95635 12.475 4.35635 12.4L6.15634 12.15C6.33134 11.6 6.55636 11.075 6.83136 10.575L5.75635 9.14997C5.50635 8.82497 5.53135 8.39999 5.75635 8.07499C5.78135 8.04999 6.25635 7.44999 6.85635 6.82499L6.95636 6.72498C7.58136 6.09998 8.18136 5.64998 8.20636 5.62498C8.53136 5.37498 8.95634 5.37498 9.28134 5.62498L10.7314 6.72498C11.2314 6.44998 11.7814 6.24999 12.3314 6.07499L12.5814 4.32499C12.6314 3.92499 12.9564 3.62499 13.3564 3.57499C13.3814 3.57499 14.1563 3.47498 15.0313 3.47498H15.1563C16.0313 3.47498 16.7814 3.57499 16.8314 3.57499C17.2314 3.62499 17.5314 3.92499 17.6064 4.32499L17.8564 6.12498C18.4064 6.29998 18.9313 6.52496 19.4313 6.79996L20.8564 5.72498C21.1814 5.47498 21.6063 5.49998 21.9313 5.72498C21.9563 5.74998 22.5563 6.22499 23.1813 6.82499L23.2813 6.92496C23.9063 7.54996 24.3564 8.14996 24.3814 8.17496C24.6314 8.49996 24.6314 8.92498 24.3814 9.24998L23.2813 10.7C23.5563 11.2 23.7563 11.75 23.9313 12.3L25.6813 12.55C26.0813 12.6 26.3813 12.925 26.4313 13.325C26.4313 13.35 26.5313 14.125 26.5313 15V15.125C26.5313 16 26.4313 16.75 26.4313 16.8C26.3813 17.2 26.0813 17.5 25.6813 17.575L23.8814 17.825C23.7064 18.375 23.4814 18.9 23.2064 19.4L24.2813 20.825C24.5313 21.15 24.5063 21.575 24.2813 21.9C24.2563 21.925 23.7813 22.525 23.1813 23.15L23.0814 23.25C22.4564 23.875 21.8564 24.3249 21.8314 24.3499C21.5064 24.5999 21.0813 24.5999 20.7563 24.3499L19.3063 23.25C18.8063 23.525 18.2564 23.725 17.7064 23.9L17.4564 25.65C17.4064 26.05 17.0813 26.35 16.6813 26.4C16.6313 26.4 15.8813 26.5 15.0063 26.5ZM14.1064 24.7C14.3314 24.725 14.6063 24.7249 14.8813 24.7249H15.0063C15.2813 24.7249 15.5563 24.725 15.7813 24.7L16.0063 23.05C16.0563 22.675 16.3313 22.4 16.6813 22.3C17.4563 22.125 18.2063 21.825 18.8813 21.4C19.0813 21.275 19.3313 21.25 19.5563 21.3C19.6813 21.325 19.8063 21.3999 19.9063 21.4749L21.2314 22.4749C21.4064 22.3249 21.6063 22.15 21.8063 21.95L21.9063 21.8499C22.1063 21.6499 22.2813 21.45 22.4313 21.275L21.4313 19.95C21.2063 19.65 21.2063 19.25 21.3813 18.95C21.8063 18.3 22.1063 17.575 22.2813 16.825C22.3563 16.45 22.6563 16.15 23.0313 16.1L24.7064 15.875C24.7314 15.65 24.7314 15.375 24.7314 15.1V14.975C24.7314 14.7 24.7314 14.425 24.7064 14.2L23.0563 13.975C22.7063 13.925 22.4064 13.65 22.3314 13.3C22.1564 12.525 21.8564 11.8 21.4564 11.125C21.4064 11.075 21.3814 11 21.3564 10.925C21.2564 10.65 21.3064 10.325 21.4814 10.1L22.5063 8.74998C22.3563 8.57498 22.1814 8.37496 21.9814 8.17496L21.8813 8.07499C21.6813 7.87499 21.4813 7.69996 21.3063 7.54996L19.9814 8.54996C19.6564 8.77496 19.2313 8.77496 18.9313 8.54996C18.2813 8.14996 17.5563 7.84997 16.8063 7.64997C16.4563 7.57497 16.1813 7.27497 16.1313 6.89997L15.9063 5.22498C15.6813 5.19998 15.4063 5.19999 15.1313 5.19999H15.0063C14.7313 5.19999 14.4564 5.19998 14.2314 5.22498L14.0063 6.87498C13.9563 7.27498 13.6563 7.57498 13.2563 7.62498C12.5063 7.79998 11.7813 8.09998 11.1313 8.49998C10.9313 8.62498 10.6814 8.64998 10.4564 8.59998C10.3314 8.57498 10.2064 8.49996 10.1064 8.42496L8.80634 7.42496C8.63134 7.57496 8.43135 7.74999 8.23135 7.94999L8.13135 8.04996C7.93135 8.24996 7.75635 8.44998 7.60635 8.62498L8.60635 9.94999C8.83135 10.25 8.83134 10.625 8.65634 10.95C8.63134 10.975 8.63135 11 8.60635 11.025C8.20635 11.675 7.90635 12.4 7.73135 13.15C7.65635 13.5 7.35635 13.775 6.98135 13.825L5.30634 14.05C5.28134 14.275 5.28134 14.55 5.28134 14.825V14.95C5.28134 15.225 5.28134 15.5 5.30634 15.725L6.95636 15.95C7.35636 16 7.65636 16.3 7.70636 16.7V16.725C7.88136 17.4749 8.18136 18.175 8.58136 18.825C8.70636 19.05 8.75634 19.325 8.65634 19.575C8.63134 19.675 8.55635 19.775 8.48135 19.875L7.50635 21.175C7.65635 21.35 7.83134 21.55 8.03134 21.75L8.13135 21.8499C8.33135 22.0499 8.53136 22.225 8.70636 22.375L10.0313 21.375C10.3563 21.125 10.8313 21.15 11.1313 21.4C11.7813 21.8 12.4814 22.075 13.2064 22.25C13.5564 22.325 13.8313 22.625 13.8813 23L14.1064 24.7Z" fill="#7A7A7A"/>
</svg>
