<svg width="30" height="30" viewBox="0 0 30 30" fill="none" xmlns="http://www.w3.org/2000/svg">
<path d="M23.4563 9.79999C23.2563 9.59999 23.0063 9.5 22.7563 9.5H20.2563V9.04999C20.2563 6.12499 17.8563 3.75 15.0563 3.75H14.9563C12.1563 3.75 9.75635 6.12499 9.75635 9.04999V9.5H7.25635C6.70635 9.5 6.25635 9.97499 6.25635 10.55V25.25C6.25635 25.8 6.70635 26.25 7.25635 26.25H22.7563C23.3063 26.25 23.7563 25.8 23.7563 25.25V10.525C23.7563 10.275 23.6563 9.99999 23.4563 9.79999ZM11.7563 9.04999C11.7563 7.22499 13.2563 5.75 14.9563 5.75H15.0563C16.7563 5.75 18.2563 7.22499 18.2563 9.04999V9.5H11.7563V9.04999V9.04999ZM21.7563 24.25H8.25635V11.5H9.75635V13.225C9.75635 13.775 10.2063 14.225 10.7563 14.225C11.3063 14.225 11.7563 13.775 11.7563 13.225V11.5H18.2563V13.225C18.2563 13.775 18.7063 14.225 19.2563 14.225C19.8063 14.225 20.2563 13.775 20.2563 13.225V11.5H21.7563V24.25Z" fill="#7A7A7A"/>
</svg>
